<?xml version="1.0" encoding="UTF-8"?>
<svg width="14px" height="12px" viewBox="0 0 14 12" version="1.1" xmlns="http://www.w3.org/2000/svg" xmlns:xlink="http://www.w3.org/1999/xlink">
    <!-- Generator: Sketch 61.2 (89653) - https://sketch.com -->
    <title>Shape</title>
    <desc>Created with Sketch.</desc>
    <g id="Page-1" stroke="none" stroke-width="1" fill="none" fill-rule="evenodd">
        <g id="User-Dashboard" transform="translate(-239.000000, -213.000000)" fill="#FFFFFF" fill-rule="nonzero">
            <g id="Group-9" transform="translate(233.000000, 207.000000)">
                <path d="M7.71428571,7.71428571 L7.71428571,6 L8.85714286,6 L8.85714286,7.71428571 L10.5714286,7.71428571 L10.5714286,8.85714286 L8.85714286,8.85714286 L8.85714286,10.5714286 L7.71428571,10.5714286 L7.71428571,8.85714286 L6,8.85714286 L6,7.71428571 L7.71428571,7.71428571 Z M9.42857143,11.1428571 L9.42857143,9.42857143 L11.1428571,9.42857143 L11.1428571,7.71428571 L15.1428571,7.71428571 L16.1885714,8.85714286 L18,8.85714286 C18.6285714,8.85714286 19.1428571,9.37142857 19.1428571,10 L19.1428571,16.8571429 C19.1428571,17.4857143 18.6285714,18 18,18 L8.85714286,18 C8.22857143,18 7.71428571,17.4857143 7.71428571,16.8571429 L7.71428571,11.1428571 L9.42857143,11.1428571 Z M13.4285714,16.2857143 C15.0057143,16.2857143 16.2857143,15.0057143 16.2857143,13.4285714 C16.2857143,11.8514286 15.0057143,10.5714286 13.4285714,10.5714286 C11.8514286,10.5714286 10.5714286,11.8514286 10.5714286,13.4285714 C10.5714286,15.0057143 11.8514286,16.2857143 13.4285714,16.2857143 Z M11.6,13.4285714 C11.6,14.44 12.4171429,15.2571429 13.4285714,15.2571429 C14.44,15.2571429 15.2571429,14.44 15.2571429,13.4285714 C15.2571429,12.4171429 14.44,11.6 13.4285714,11.6 C12.4171429,11.6 11.6,12.4171429 11.6,13.4285714 Z" id="Shape"></path>
            </g>
        </g>
    </g>
</svg>